<?xml version="1.0" standalone="no"?>
<!DOCTYPE svg PUBLIC "-//W3C//DTD SVG 20010904//EN"
 "http://www.w3.org/TR/2001/REC-SVG-20010904/DTD/svg10.dtd">
<svg version="1.0" xmlns="http://www.w3.org/2000/svg"
 width="300.000000pt" height="327.000000pt" viewBox="0 0 300.000000 327.000000"
 preserveAspectRatio="xMidYMid meet">
<metadata>
Created by potrace 1.10, written by Peter Selinger 2001-2011
</metadata>
<g transform="translate(0.000000,327.000000) scale(0.100000,-0.100000)"
fill="#000000" stroke="none">
<path d="M1640 3225 l0 -45 125 0 125 0 0 -145 0 -145 -295 0 -295 0 0 -64 0
-65 -48 -3 -49 -3 63 -280 c35 -154 63 -290 63 -302 l1 -23 -240 0 c-132 0
-240 -3 -240 -7 0 -13 239 -755 244 -760 11 -11 175 -53 271 -70 l105 -17 0
-54 c0 -52 1 -53 38 -68 152 -63 172 -78 157 -123 -8 -26 -55 -41 -131 -41
-61 0 -64 -1 -64 -24 0 -17 8 -27 28 -34 23 -8 64 1 227 49 l200 58 97 -40
c142 -60 143 -75 8 -200 -83 -77 -98 -95 -90 -110 18 -34 11 -66 -21 -93 -28
-24 -38 -26 -128 -26 -88 0 -225 12 -293 26 l-28 6 0 -311 0 -311 450 0 450 0
2 647 3 646 122 23 c67 12 151 32 187 44 l66 21 74 232 c140 437 166 519 166
528 0 5 -104 9 -240 9 -207 0 -240 2 -240 15 0 14 115 541 126 577 4 14 -3 17
-43 20 l-48 3 -3 62 -3 63 -292 2 -292 3 0 140 0 140 128 3 127 3 0 44 0 45
-285 0 -285 0 0 -45z m740 -679 c0 -3 -50 -229 -65 -293 l-5 -23 -390 0 c-215
0 -390 2 -390 4 0 3 -50 229 -65 294 l-5 22 460 0 c253 0 460 -2 460 -4z m400
-558 c0 -7 -31 -110 -68 -228 l-69 -215 -721 -3 -721 -2 -65 202 c-36 112 -68
215 -72 231 l-6 27 861 0 c682 0 861 -3 861 -12z"/>
<path d="M72 1461 c-23 -4 -50 -14 -58 -23 -14 -14 -14 -18 0 -46 35 -67 182
-170 386 -270 94 -46 162 -86 193 -115 46 -42 47 -44 36 -77 -11 -29 -10 -35
7 -47 20 -14 107 -43 133 -43 9 0 33 -16 53 -35 33 -30 36 -38 28 -60 -15 -41
-2 -54 81 -79 69 -21 88 -33 167 -103 68 -59 107 -85 165 -109 43 -18 77 -30
77 -28 0 2 -65 93 -145 201 -80 108 -143 198 -141 201 3 2 80 -26 173 -63 187
-75 280 -98 472 -115 183 -17 244 -2 188 46 l-26 22 110 109 110 108 -38 17
c-99 46 -95 46 -310 -16 l-198 -58 -200 84 -200 83 69 3 c43 2 85 -3 114 -13
56 -19 52 -19 52 4 0 18 11 20 121 26 l121 8 -78 32 c-70 29 -118 38 -424 80
l-344 47 -119 60 c-66 32 -179 86 -253 119 -126 55 -139 59 -207 58 -40 -1
-91 -5 -115 -8z"/>
</g>
</svg>
