<?xml version="1.0" standalone="no"?>
<!DOCTYPE svg PUBLIC "-//W3C//DTD SVG 20010904//EN"
 "http://www.w3.org/TR/2001/REC-SVG-20010904/DTD/svg10.dtd">
<svg version="1.0" xmlns="http://www.w3.org/2000/svg"
 width="225.000000pt" height="225.000000pt" viewBox="0 0 225.000000 225.000000"
 preserveAspectRatio="xMidYMid meet">
<metadata>
Created by potrace 1.10, written by Peter Selinger 2001-2011
</metadata>
<g transform="translate(0.000000,225.000000) scale(0.100000,-0.100000)"
fill="#000000" stroke="none">
<path d="M1006 2163 c-197 -185 -466 -298 -838 -351 -181 -26 -178 -21 -158
-237 53 -575 311 -1068 719 -1371 115 -86 340 -199 395 -199 54 0 259 100 381
186 117 83 293 260 375 377 199 284 326 638 360 1007 20 216 23 211 -159 237
-255 36 -489 111 -656 211 -51 30 -127 89 -181 140 -67 62 -101 87 -119 87
-18 0 -52 -25 -119 -87z m292 -283 c40 -24 52 -37 52 -57 0 -21 12 -30 83 -63
148 -68 363 -135 497 -155 86 -12 83 -10 75 -79 -9 -83 -39 -223 -69 -326 -22
-75 -23 -86 -10 -101 13 -15 12 -22 -6 -70 -109 -276 -319 -547 -544 -699 -80
-53 -227 -130 -251 -130 -23 0 -150 66 -243 127 -46 29 -129 97 -184 151 -149
145 -249 288 -347 501 -40 88 -42 96 -29 119 14 22 13 32 -9 106 -29 99 -59
240 -68 323 l-7 61 58 11 c199 39 370 92 520 161 71 33 84 42 84 63 0 19 15
34 68 69 37 25 87 62 111 81 l45 36 60 -48 c34 -27 85 -63 114 -81z"/>
<path d="M1071 1934 c-57 -40 -101 -201 -101 -369 l0 -110 -34 -28 c-31 -24
-35 -33 -38 -78 l-3 -52 -178 -103 c-98 -57 -180 -104 -182 -104 -3 0 -5 11
-5 24 0 23 -23 56 -39 56 -4 0 -15 -6 -24 -12 -14 -11 -16 -37 -17 -168 -1
-85 -1 -163 -1 -172 1 -10 10 -22 22 -29 17 -9 25 -7 43 10 21 20 34 21 204
21 l182 0 0 -24 c0 -18 -21 -41 -89 -95 -49 -39 -92 -78 -95 -87 -3 -9 -6 -39
-6 -68 0 -42 5 -57 23 -74 21 -20 34 -22 135 -22 l112 0 14 -33 c7 -17 26 -43
41 -57 22 -21 36 -25 90 -25 54 0 68 4 90 25 15 14 34 40 41 58 l14 32 113 0
c106 0 115 2 135 23 17 18 22 36 22 74 0 28 -3 58 -6 67 -3 9 -46 48 -95 87
-68 54 -89 77 -89 95 l0 24 182 0 c170 0 183 -1 204 -21 18 -17 26 -19 43 -10
12 7 21 19 22 29 0 9 0 87 -1 172 -1 131 -3 157 -17 168 -9 6 -20 12 -24 12
-16 0 -39 -33 -39 -56 0 -13 -2 -24 -5 -24 -2 0 -84 47 -182 104 l-178 104 -3
51 c-3 44 -7 54 -38 78 l-34 28 0 110 c0 124 -16 214 -53 296 -28 63 -57 89
-102 89 -17 0 -41 -7 -54 -16z m87 -111 c31 -75 42 -144 42 -274 0 -66 5 -129
10 -140 6 -10 24 -26 40 -34 l30 -16 0 -130 c0 -111 2 -131 16 -136 30 -11 49
11 54 64 l5 49 182 -105 183 -106 0 -47 0 -48 -184 0 -185 0 -3 46 c-3 50 -22
72 -52 61 -15 -6 -16 -23 -14 -144 l3 -137 85 -69 c64 -52 86 -77 88 -97 3
-26 0 -27 -50 -33 -29 -4 -85 -7 -124 -7 l-70 0 -25 -52 c-23 -51 -26 -53 -64
-53 -38 0 -41 2 -64 53 l-25 52 -124 0 -123 0 3 34 c3 28 16 44 88 103 l85 69
3 137 c2 121 1 138 -14 144 -30 11 -49 -11 -52 -61 l-3 -46 -190 0 -189 0 0
44 0 44 188 110 187 110 5 -51 c5 -53 24 -75 54 -64 14 5 16 25 16 136 l0 129
34 21 c19 12 37 28 40 37 3 9 6 73 6 142 0 70 5 147 11 171 14 64 49 141 64
141 7 0 22 -21 33 -47z"/>
</g>
</svg>
