<?xml version="1.0" standalone="no"?>
<!DOCTYPE svg PUBLIC "-//W3C//DTD SVG 20010904//EN"
 "http://www.w3.org/TR/2001/REC-SVG-20010904/DTD/svg10.dtd">
<svg version="1.0" xmlns="http://www.w3.org/2000/svg"
 width="70.000000pt" height="70.000000pt" viewBox="0 0 300.000000 287.000000"
 preserveAspectRatio="xMidYMid meet">
<metadata>
Created by potrace 1.10, written by Peter Selinger 2001-2011
</metadata>
<g transform="translate(0.000000,287.000000) scale(0.100000,-0.100000)"
fill="#000000" stroke="none">
<path d="M1397 2686 c-135 -50 -222 -190 -202 -324 16 -107 94 -212 181 -244
34 -12 34 -12 34 -74 l0 -62 -35 -6 c-20 -4 -41 -16 -48 -26 -11 -19 -24 -20
-209 -20 l-197 0 -17 35 c-39 83 -115 108 -175 58 -71 -60 -90 -177 -44 -270
34 -67 66 -88 127 -84 26 2 79 51 94 88 l14 33 198 0 c186 0 198 -1 210 -20 7
-12 23 -20 38 -20 26 0 27 -1 20 -57 -3 -32 -10 -193 -16 -358 -19 -568 -44
-734 -114 -766 -34 -16 -116 11 -196 63 -71 46 -258 222 -280 263 -18 33 -3
45 56 45 32 0 51 8 88 37 l47 36 -53 29 c-119 66 -431 219 -436 214 -6 -6 16
-608 23 -614 3 -4 44 57 112 167 15 23 16 22 64 -68 75 -142 202 -314 278
-378 232 -192 523 -250 795 -159 134 45 202 85 283 168 79 79 93 99 208 284
52 83 101 156 109 163 12 10 23 -1 65 -67 90 -140 88 -142 95 70 11 312 11
438 2 438 -9 0 -456 -238 -469 -250 -5 -4 10 -21 31 -39 31 -24 50 -31 83 -31
24 0 50 -4 58 -9 37 -23 -24 -104 -169 -223 -105 -88 -191 -135 -262 -144 -92
-13 -119 35 -137 241 -11 122 -39 673 -44 844 l-2 94 29 8 c17 5 34 15 38 24
8 13 39 15 207 15 l198 0 18 -41 c58 -127 202 -95 235 54 19 83 1 159 -50 209
-62 62 -136 47 -181 -36 l-24 -46 -197 0 c-187 0 -198 1 -208 20 -7 12 -25 22
-50 26 l-40 7 0 58 0 59 43 20 c68 32 113 76 146 142 27 52 31 72 31 137 0 92
-22 146 -83 209 -63 65 -108 85 -202 89 -52 2 -93 -2 -118 -11z m198 -147 c69
-47 94 -143 55 -219 -30 -59 -82 -90 -151 -90 -65 0 -109 24 -147 80 -32 47
-28 139 7 189 51 71 162 90 236 40z"/>
</g>
</svg>
