<?xml version="1.0" standalone="no"?>
<!DOCTYPE svg PUBLIC "-//W3C//DTD SVG 20010904//EN"
 "http://www.w3.org/TR/2001/REC-SVG-20010904/DTD/svg10.dtd">
<svg version="1.0" xmlns="http://www.w3.org/2000/svg"
 width="70.000000pt" height="70.000000pt" viewBox="0 0 300.000000 285.000000"
 preserveAspectRatio="xMidYMid meet">
<metadata>
Created by potrace 1.10, written by Peter Selinger 2001-2011
</metadata>
<g transform="translate(0.000000,285.000000) scale(0.100000,-0.100000)"
fill="#000000" stroke="none">
<path d="M1373 2560 c-173 -18 -361 -84 -521 -182 -109 -67 -298 -251 -367
-358 -92 -141 -158 -313 -186 -479 -19 -111 -14 -312 11 -430 163 -794 1040
-1209 1757 -832 399 211 645 616 645 1066 0 145 -10 222 -48 351 -57 198 -149
351 -308 510 -151 151 -281 233 -464 294 -168 56 -352 77 -519 60z m182 -36
c14 -6 13 -10 -7 -31 -21 -23 -23 -34 -26 -171 -3 -140 -11 -178 -31 -156 -5
5 -12 77 -16 159 -6 130 -9 153 -27 171 -15 17 -16 23 -6 27 19 8 93 8 113 1z
m-115 -207 c0 -161 0 -164 25 -187 18 -17 25 -34 25 -62 0 -36 -2 -38 -30 -38
-18 0 -30 -5 -30 -13 0 -9 10 -12 30 -9 l30 4 0 -66 c0 -59 -2 -66 -20 -66
-11 0 -20 -4 -20 -10 0 -5 9 -10 20 -10 19 0 20 -7 20 -250 l0 -250 -250 0
c-243 0 -250 1 -250 20 0 11 -4 20 -10 20 -5 0 -10 -9 -10 -20 0 -18 -7 -20
-66 -20 l-66 0 7 30 c5 23 3 30 -9 30 -11 0 -16 -9 -16 -30 0 -28 -3 -30 -37
-30 -26 0 -45 8 -64 26 -27 26 -28 26 -185 25 l-157 -2 6 73 c27 303 223 626
488 801 171 113 319 165 562 196 4 1 7 -72 7 -162z m250 142 c169 -26 341
-101 491 -214 226 -170 386 -433 428 -705 6 -41 14 -88 16 -103 l5 -28 -161 2
c-160 1 -161 1 -188 -25 -19 -18 -38 -26 -64 -26 -34 0 -37 2 -37 30 0 20 -5
30 -15 30 -11 0 -13 -8 -8 -30 l6 -30 -67 0 c-59 0 -66 2 -66 20 0 11 -4 20
-10 20 -5 0 -10 -9 -10 -20 0 -19 -7 -20 -250 -20 l-250 0 0 250 c0 243 1 250
20 250 11 0 20 5 20 10 0 6 -9 10 -20 10 -18 0 -20 7 -20 66 l0 66 30 -4 c20
-3 30 0 30 9 0 8 -12 13 -30 13 -28 0 -30 2 -30 38 0 28 7 45 25 62 25 23 25
26 25 186 l0 164 28 -5 c15 -2 61 -10 102 -16z m986 -1086 c2 -26 1 -60 -2
-75 l-6 -28 -25 30 -25 30 -141 0 c-140 0 -176 7 -163 29 5 7 50 11 129 11
136 0 192 11 208 41 15 28 21 19 25 -38z m-2309 20 c22 -14 57 -19 173 -23
120 -4 145 -8 145 -20 0 -12 -26 -16 -153 -20 -153 -5 -154 -5 -177 -33 l-24
-27 -5 32 c-7 52 -4 108 6 108 5 0 21 -8 35 -17z m453 -83 c0 -21 5 -30 16
-30 13 0 15 7 11 30 l-6 30 64 0 c58 0 65 -2 65 -20 0 -11 5 -20 10 -20 6 0
10 9 10 20 0 19 7 20 250 20 l250 0 0 -250 c0 -243 -1 -250 -20 -250 -11 0
-20 -4 -20 -10 0 -5 9 -10 20 -10 18 0 20 -7 20 -60 0 -60 0 -60 -30 -60 -20
0 -30 -5 -30 -15 0 -10 10 -15 30 -15 28 0 30 -2 30 -38 0 -28 -7 -45 -25 -62
-25 -23 -25 -26 -25 -183 l0 -159 -67 7 c-172 18 -368 92 -516 194 -88 61
-227 202 -286 290 -96 142 -160 308 -184 476 l-13 90 161 3 c158 2 163 3 185
27 17 18 34 25 62 25 36 0 38 -2 38 -30z m1190 10 c0 -11 5 -20 10 -20 6 0 10
9 10 20 0 18 7 20 66 20 l66 0 -7 -30 c-5 -23 -3 -30 9 -30 11 0 16 9 16 30 0
28 2 30 38 30 28 0 45 -7 62 -25 23 -25 26 -25 185 -25 l161 0 -8 -72 c-23
-195 -103 -390 -224 -548 -58 -76 -187 -198 -263 -249 -142 -96 -338 -169
-503 -186 l-68 -7 0 159 c0 157 0 160 -25 183 -18 17 -25 34 -25 62 0 36 2 38
30 38 20 0 30 5 30 15 0 10 -10 15 -30 15 -30 0 -30 0 -30 60 0 53 2 60 20 60
11 0 20 5 20 10 0 6 -9 10 -20 10 -19 0 -20 7 -20 250 l0 250 250 0 c243 0
250 -1 250 -20z m-489 -936 c3 -82 7 -150 7 -151 1 -1 14 -14 29 -28 l28 -25
-85 0 c-84 1 -85 1 -63 19 36 30 43 64 43 200 0 70 3 131 7 135 21 21 28 -11
34 -150z"/>
</g>
</svg>
