<?xml version="1.0" standalone="no"?>
<!DOCTYPE svg PUBLIC "-//W3C//DTD SVG 20010904//EN"
 "http://www.w3.org/TR/2001/REC-SVG-20010904/DTD/svg10.dtd">
<svg version="1.0" xmlns="http://www.w3.org/2000/svg"
 width="36.000000pt" height="36.000000pt" viewBox="0 0 225.000000 225.000000"
 preserveAspectRatio="xMidYMid meet">
<metadata>
Created by potrace 1.10, written by Peter Selinger 2001-2011
</metadata>
<g transform="translate(0.000000,225.000000) scale(0.100000,-0.100000)"
fill="currentColor" stroke="none">
<path d="M207 2229 c-19 -14 -27 -30 -27 -53 0 -52 19 -68 90 -77 34 -4 66
-11 71 -16 5 -5 16 -52 24 -104 16 -108 53 -241 90 -324 58 -132 161 -251 345
-400 131 -105 127 -161 -15 -273 -266 -211 -380 -405 -425 -728 -6 -43 -14
-82 -19 -87 -5 -5 -37 -12 -71 -16 -71 -9 -90 -25 -90 -77 0 -23 8 -39 26 -53
27 -21 31 -21 921 -21 l894 0 24 25 c52 51 16 125 -61 125 -76 0 -85 12 -105
135 -36 218 -113 396 -227 525 -29 33 -97 95 -150 139 -127 103 -143 121 -149
170 -6 40 -4 43 53 99 33 31 93 84 134 117 190 153 303 367 343 650 15 102 26
115 104 115 70 0 106 69 64 121 l-19 24 -900 3 c-898 2 -899 2 -925 -19z
m1307 -625 c9 -8 16 -21 16 -29 0 -22 -95 -119 -205 -210 -61 -50 -109 -98
-119 -118 -13 -28 -16 -68 -16 -199 0 -192 6 -209 90 -276 156 -122 184 -147
227 -205 25 -34 66 -104 91 -156 43 -88 45 -95 31 -120 l-15 -26 -488 -3
c-353 -1 -493 1 -502 9 -21 17 -17 49 16 128 61 150 148 251 305 358 101 69
105 80 105 288 0 167 -1 172 -26 210 -14 22 -51 60 -82 85 -87 70 -202 181
-217 211 -12 22 -12 29 1 48 15 21 18 21 394 21 331 0 381 -2 394 -16z"/>
</g>
</svg>
