<?xml version="1.0" standalone="no"?>
<!DOCTYPE svg PUBLIC "-//W3C//DTD SVG 20010904//EN"
 "http://www.w3.org/TR/2001/REC-SVG-20010904/DTD/svg10.dtd">
<svg version="1.0" xmlns="http://www.w3.org/2000/svg"
 width="40.000000pt" height="20.000000pt" viewBox="0 0 300.000000 168.000000"
 preserveAspectRatio="xMidYMid meet">
<metadata>
Created by potrace 1.10, written by Peter Selinger 2001-2011
</metadata>
<g transform="translate(0.000000,168.000000) scale(0.100000,-0.100000)"
fill="currentColor" stroke="none">
<path d="M1224 1673 c-27 -5 -52 -60 -138 -304 -92 -264 -91 -237 -9 -241 37
-2 -34 -7 -158 -12 l-227 -8 -91 -262 c-50 -144 -91 -265 -91 -269 0 -4 28 -7
63 -8 44 0 56 -3 42 -9 -11 -5 -88 -9 -171 -9 -204 -1 -241 -7 -258 -40 -16
-31 -176 -487 -176 -501 0 -7 515 -10 1495 -10 l1494 0 -79 230 c-43 126 -88
251 -99 276 l-21 47 -300 -5 c-165 -2 -302 -7 -305 -10 -3 -3 -41 -106 -84
-229 -43 -123 -85 -240 -93 -259 -14 -33 -15 -34 -25 -15 -6 11 -41 108 -78
215 -37 107 -78 219 -91 249 -13 29 -24 55 -24 56 0 2 155 6 345 10 190 4 345
11 345 15 0 10 -114 355 -145 437 -14 37 -33 74 -42 81 -13 9 -92 12 -314 12
l-296 0 -48 -137 c-79 -231 -137 -383 -144 -383 -4 0 -38 89 -76 198 -37 108
-81 226 -96 261 -16 35 -27 67 -24 71 2 4 151 9 330 12 221 4 330 9 337 16 9
9 -10 77 -71 259 -46 137 -88 254 -94 261 -7 9 -75 12 -286 11 -152 -1 -286
-4 -297 -6z m167 -1124 c-106 -4 -195 -10 -198 -12 -2 -3 -39 -105 -82 -228
-43 -123 -85 -240 -93 -259 -14 -33 -15 -34 -25 -15 -6 11 -41 108 -78 215
-37 107 -78 219 -91 249 -13 29 -24 55 -24 57 0 2 177 3 393 2 362 -1 377 -2
198 -9z"/>
</g>
</svg>
