<?xml version="1.0" standalone="no"?>
<!DOCTYPE svg PUBLIC "-//W3C//DTD SVG 20010904//EN"
 "http://www.w3.org/TR/2001/REC-SVG-20010904/DTD/svg10.dtd">
<svg version="1.0" xmlns="http://www.w3.org/2000/svg"
 width="180.000000pt" height="180.000000pt" viewBox="0 0 180.000000 180.000000"
 preserveAspectRatio="xMidYMid meet">
<metadata>
Created by potrace 1.10, written by Peter Selinger 2001-2011
</metadata>
<g transform="translate(0.000000,180.000000) scale(0.100000,-0.100000)"
fill="#000000" stroke="none">
<path d="M714 1449 c-3 -6 -30 -80 -59 -165 l-52 -154 81 0 c232 -1 501 1 504
5 4 4 -89 293 -101 313 -11 16 -362 18 -373 1z m336 -33 c-17 -17 -386 -255
-408 -263 -11 -5 -11 0 2 26 10 18 33 78 53 134 19 56 40 105 47 109 6 4 81 8
166 8 134 0 152 -2 140 -14z m57 -126 c49 -150 70 -136 -187 -135 -121 0 -220
3 -220 6 0 10 20 24 181 129 89 58 162 99 174 98 16 -2 27 -23 52 -98z"/>
<path d="M1265 1120 c-96 -5 -99 -6 -67 -19 22 -9 54 -12 98 -8 44 3 64 1 61
-6 -3 -10 -279 -192 -384 -254 l-45 -26 20 39 c28 56 96 264 88 271 -15 15
-36 -30 -84 -174 l-50 -153 298 0 298 0 -54 164 c-31 90 -61 166 -67 168 -7 1
-57 1 -112 -2z m117 -97 c27 -66 58 -167 58 -188 0 -20 -6 -21 -220 -20 -142
0 -219 4 -217 10 4 16 337 235 358 235 3 0 13 -17 21 -37z"/>
<path d="M413 1108 c-6 -7 -33 -82 -61 -165 l-50 -153 294 0 c201 0 294 3 294
11 0 18 -92 294 -103 307 -8 10 -12 8 -21 -9 -9 -19 -254 -184 -393 -266 l-46
-26 14 24 c7 13 31 76 54 139 l40 115 80 5 c44 3 89 10 100 17 17 10 2 12 -86
13 -74 0 -110 -4 -116 -12z m399 -168 c21 -62 35 -116 32 -119 -6 -6 -454 -8
-454 -2 0 7 58 49 159 113 155 99 205 128 215 125 5 -2 27 -54 48 -117z"/>
<path d="M122 782 c-7 -5 -34 -73 -61 -153 -27 -79 -52 -152 -56 -161 -7 -17
40 -18 893 -18 l901 0 -57 168 -57 167 -72 3 c-40 2 -87 -1 -105 -6 l-33 -9
30 -12 c20 -8 54 -10 100 -6 89 9 88 8 -115 -122 -225 -145 -256 -162 -245
-138 28 64 96 277 91 282 -15 15 -36 -30 -82 -169 -27 -82 -51 -148 -54 -148
-3 0 -29 72 -58 160 -30 88 -57 160 -62 160 -4 0 -10 -8 -12 -18 -4 -15 -327
-231 -407 -272 -22 -11 -23 -11 -16 6 27 62 96 276 91 281 -15 15 -36 -30 -82
-169 -27 -82 -51 -148 -54 -148 -3 0 -29 72 -58 160 -30 88 -57 160 -62 160
-4 0 -10 -8 -12 -18 -4 -15 -242 -175 -382 -257 -43 -25 -49 -27 -42 -10 5 11
27 72 50 135 l41 115 80 6 c44 4 89 11 100 15 18 8 17 9 -10 15 -44 10 -168
10 -183 1z m385 -167 c18 -55 33 -106 33 -112 0 -10 -50 -13 -217 -13 -214 0
-217 0 -198 19 37 35 320 211 335 209 9 -2 27 -42 47 -103z m600 0 c18 -54 33
-105 33 -112 0 -10 -47 -13 -217 -13 -214 0 -217 0 -198 19 35 33 319 211 334
209 8 -2 28 -45 48 -103z m600 0 c18 -55 33 -106 33 -112 0 -10 -50 -13 -217
-13 -214 0 -217 0 -198 19 37 35 320 211 335 209 9 -2 27 -42 47 -103z"/>
</g>
</svg>
