<?xml version="1.0" standalone="no"?>
<!DOCTYPE svg PUBLIC "-//W3C//DTD SVG 20010904//EN"
 "http://www.w3.org/TR/2001/REC-SVG-20010904/DTD/svg10.dtd">
<svg version="1.0" xmlns="http://www.w3.org/2000/svg"
 width="36.000000pt" height="36.000000pt" viewBox="0 0 225.000000 225.000000"
 preserveAspectRatio="xMidYMid meet">
<metadata>
Created by potrace 1.10, written by Peter Selinger 2001-2011
</metadata>
<g transform="translate(0.000000,225.000000) scale(0.100000,-0.100000)"
fill="currentColor" stroke="none">
<path d="M1040 2244 c-406 -44 -729 -257 -906 -597 -90 -174 -127 -325 -127
-522 0 -542 367 -988 905 -1101 111 -23 315 -23 426 0 402 84 719 360 848 738
59 175 75 406 40 576 -95 455 -432 794 -881 886 -74 15 -246 27 -305 20z m258
-250 c415 -85 712 -448 712 -869 0 -158 -41 -311 -118 -443 l-36 -62 -208 207
c-114 114 -208 211 -208 214 0 4 46 -5 101 -19 78 -19 103 -30 107 -44 4 -16
6 -16 16 -4 10 14 28 11 144 -18 73 -19 134 -31 136 -27 6 10 -50 150 -68 170
-9 10 -48 35 -86 56 l-70 38 0 53 c0 58 -7 64 -70 64 -28 0 -43 -6 -54 -21
l-14 -21 -46 27 c-45 27 -46 28 -46 80 0 64 -13 77 -72 73 -33 -2 -45 -8 -53
-25 -5 -13 -12 -23 -15 -23 -3 0 -32 15 -65 34 l-60 33 -6 134 c-8 190 -39
254 -115 235 -45 -12 -67 -81 -72 -226 -2 -69 -5 -132 -8 -139 -3 -10 -73 53
-204 184 l-200 199 53 33 c67 42 183 87 272 106 94 20 257 21 353 1z m-739
-528 l164 -164 -27 -17 c-26 -17 -27 -17 -42 4 -11 15 -26 21 -54 21 -63 0
-70 -6 -70 -64 l0 -53 -70 -38 c-38 -21 -77 -46 -86 -56 -18 -20 -74 -160 -68
-170 2 -4 63 8 136 27 116 29 134 32 144 18 10 -12 12 -12 16 4 4 14 29 25
106 44 l101 26 7 -22 c7 -20 7 -20 16 5 7 21 19 28 60 38 l52 12 43 -43 44
-43 -3 -133 -3 -134 -145 -83 c-80 -46 -157 -98 -172 -115 -32 -35 -38 -74
-10 -66 9 3 92 23 183 45 145 34 172 37 207 28 29 -8 51 -8 77 0 31 10 60 5
216 -32 163 -39 184 -46 215 -76 l34 -33 -52 -33 c-29 -18 -87 -46 -128 -62
-394 -153 -837 -11 -1068 342 -180 276 -190 641 -24 924 20 35 36 63 37 63 0
0 74 -74 164 -164z m746 -747 l80 -81 -50 27 c-115 64 -115 64 -115 101 0 19
1 34 3 34 1 0 38 -37 82 -81z"/>
</g>
</svg>
