<?xml version="1.0" standalone="no"?>
<!DOCTYPE svg PUBLIC "-//W3C//DTD SVG 20010904//EN"
 "http://www.w3.org/TR/2001/REC-SVG-20010904/DTD/svg10.dtd">
<svg version="1.0" xmlns="http://www.w3.org/2000/svg"
 width="60.000000pt" height="40.000000pt" viewBox="0 0 101.000000 64.000000"
 preserveAspectRatio="xMidYMid meet">
<metadata>
Created by potrace 1.10, written by Peter Selinger 2001-2011
</metadata>
<g transform="translate(0.000000,64.000000) scale(0.100000,-0.100000)"
fill="currentColor" stroke="none">
<path d="M487 630 c-55 -14 -93 -36 -144 -83 -50 -46 -69 -78 -93 -157 -15
-52 -18 -55 -56 -62 -77 -14 -115 -10 -121 12 -7 25 -43 27 -43 2 0 -10 -5
-23 -12 -30 -9 -9 -8 -17 2 -37 14 -26 34 -33 46 -14 6 11 23 9 131 -12 50
-10 54 -13 73 -57 28 -62 101 -136 164 -163 69 -31 182 -32 247 -2 62 28 125
86 161 149 27 48 32 52 76 59 26 4 55 11 65 16 40 22 5 61 -65 73 -35 6 -37 9
-48 59 -20 97 -95 188 -185 228 -52 23 -146 32 -198 19z m139 -85 c62 -18 116
-63 143 -118 25 -52 28 -89 6 -81 -8 4 -15 14 -15 25 0 22 -25 36 -65 35 -22
-1 -30 -7 -35 -26 -5 -20 -13 -26 -40 -28 -32 -2 -42 5 -114 77 -43 44 -75 84
-72 90 8 12 90 39 122 40 11 1 43 -6 70 -14z m-191 -154 l39 -41 -46 0 c-25 0
-60 -3 -77 -6 -31 -7 -32 -6 -25 22 4 16 13 41 21 57 16 33 29 28 88 -32z
m209 -212 c46 -48 48 -52 32 -65 -28 -20 -112 -35 -158 -28 -68 11 -178 102
-178 147 0 7 44 8 128 4 l127 -7 49 -51z m126 31 c-6 -11 -14 -20 -19 -20 -4
0 -16 9 -26 20 -18 20 -17 20 19 20 34 0 36 -2 26 -20z"/>
</g>
</svg>
