<?xml version="1.0" standalone="no"?>
<!DOCTYPE svg PUBLIC "-//W3C//DTD SVG 20010904//EN"
 "http://www.w3.org/TR/2001/REC-SVG-20010904/DTD/svg10.dtd">
<svg version="1.0" xmlns="http://www.w3.org/2000/svg"
 width="50.000000pt" height="50.000000pt" viewBox="0 0 225.000000 225.000000"
 preserveAspectRatio="xMidYMid meet">
<metadata>
Created by potrace 1.10, written by Peter Selinger 2001-2011
</metadata>
<g transform="translate(0.000000,225.000000) scale(0.100000,-0.100000)"
fill="#000000" stroke="none">
<path d="M1733 2197 c-12 -7 -80 -65 -151 -129 l-129 -117 -45 16 c-24 9 -52
14 -61 10 -21 -8 -22 -48 -3 -86 15 -27 14 -28 -75 -110 l-89 -82 -95 83
c-106 92 -167 130 -205 126 -55 -7 -26 -84 75 -194 l64 -71 -68 -67 c-38 -36
-71 -66 -74 -66 -3 0 -39 24 -80 53 -74 53 -152 85 -182 74 -40 -16 0 -126 79
-213 l45 -51 -74 -73 -74 -73 -33 26 c-127 103 -162 127 -194 133 -91 17 -61
-67 73 -207 l96 -99 -79 -83 c-54 -55 -85 -81 -99 -80 -11 1 -36 5 -56 9 -53
9 -67 -13 -44 -71 l17 -46 -131 -134 c-72 -74 -133 -146 -137 -160 -14 -57 49
-95 135 -81 51 8 101 31 443 202 265 132 295 145 336 142 43 -3 46 -1 53 27 7
26 23 37 114 83 l106 52 38 -32 c137 -120 331 -286 418 -357 63 -50 100 -88
96 -95 -4 -6 -21 -31 -39 -56 -38 -54 -164 -294 -164 -313 0 -27 37 -49 69
-42 36 8 136 78 256 179 49 42 98 76 108 76 10 0 17 6 15 14 -2 8 31 52 72 98
118 129 158 180 174 220 22 51 20 65 -9 84 -24 15 -28 15 -78 -6 -93 -40 -208
-100 -270 -142 l-61 -41 -60 69 c-34 38 -135 149 -226 247 -91 98 -174 190
-185 204 l-20 25 51 96 c40 76 58 100 85 113 31 15 33 19 30 60 -2 38 8 63 69
179 39 74 75 142 80 150 5 8 52 102 104 208 101 202 110 236 81 291 -21 41
-51 51 -92 28z"/>
</g>
</svg>
