<?xml version="1.0" standalone="no"?>
<!DOCTYPE svg PUBLIC "-//W3C//DTD SVG 20010904//EN"
 "http://www.w3.org/TR/2001/REC-SVG-20010904/DTD/svg10.dtd">
<svg version="1.0" xmlns="http://www.w3.org/2000/svg"
 width="25.000000pt" height="25.000000pt" viewBox="0 0 225.000000 225.000000"
 preserveAspectRatio="xMidYMid meet">
<metadata>
Created by potrace 1.10, written by Peter Selinger 2001-2011
</metadata>
<g transform="translate(0.000000,225.000000) scale(0.100000,-0.100000)"
fill="#000000" stroke="none">
<path d="M1735 2198 c-11 -6 -58 -45 -104 -87 -47 -42 -106 -96 -133 -120
l-48 -43 -36 17 c-48 23 -78 17 -82 -17 -2 -15 4 -40 12 -56 l15 -29 -90 -83
-90 -82 -67 59 c-115 101 -172 142 -208 149 -83 15 -67 -56 40 -178 l74 -85
-71 -71 -72 -71 -40 35 c-53 45 -176 107 -206 102 -56 -8 -23 -116 65 -215
l46 -51 -71 -69 c-39 -37 -74 -69 -77 -71 -4 -1 -43 28 -87 64 -80 67 -127 94
-165 94 -61 0 -19 -89 100 -213 l92 -97 -83 -89 -83 -89 -29 14 c-34 18 -76
15 -90 -7 -7 -12 -5 -27 9 -55 l20 -39 -129 -133 c-70 -74 -132 -144 -137
-158 -23 -60 28 -100 115 -91 61 7 91 20 457 203 266 133 295 145 337 142 44
-3 46 -2 49 25 3 24 17 34 114 83 110 55 110 55 132 36 96 -86 294 -256 403
-346 73 -59 131 -111 129 -115 -2 -3 -24 -35 -48 -71 -73 -109 -162 -293 -154
-318 20 -62 110 -22 291 129 81 67 126 98 138 95 13 -3 17 1 15 14 -2 12 32
58 96 129 121 136 144 166 156 210 11 39 0 66 -30 76 -24 8 -239 -93 -330
-155 l-62 -42 -23 23 c-12 13 -85 94 -161 179 -77 85 -178 196 -226 246 l-87
92 57 105 c50 94 60 106 88 111 30 6 31 7 26 54 -4 43 2 58 67 182 40 74 76
142 81 150 4 8 51 102 104 207 101 202 110 236 81 292 -21 41 -52 51 -90 29z
m55 -57 c5 -11 10 -29 10 -41 0 -12 -79 -177 -175 -367 -96 -189 -175 -356
-175 -371 0 -16 -13 -40 -34 -62 -19 -19 -55 -77 -82 -128 -39 -76 -46 -96
-38 -117 5 -13 72 -93 150 -177 78 -84 181 -198 229 -253 48 -55 100 -108 116
-119 l30 -18 83 51 c95 58 265 141 290 141 22 0 20 -9 -13 -61 -57 -89 -235
-275 -365 -382 -219 -181 -261 -189 -181 -35 26 51 70 128 98 171 38 59 48 83
43 102 -4 15 -41 54 -89 94 -45 38 -127 106 -182 152 -55 46 -116 98 -135 115
-19 17 -61 54 -93 83 -40 36 -66 51 -85 51 -40 0 -201 -81 -236 -119 -21 -22
-39 -31 -62 -31 -21 0 -145 -56 -373 -169 -218 -108 -358 -172 -387 -177 -49
-7 -94 7 -94 28 0 8 50 63 110 123 61 61 122 127 136 147 23 33 25 41 15 69
-6 18 -11 34 -11 37 0 2 20 1 45 -2 45 -7 46 -6 107 51 71 68 118 129 118 154
0 10 -43 66 -95 124 -87 98 -111 135 -86 135 6 0 49 -31 97 -70 56 -46 95 -70
112 -70 19 0 47 21 104 78 43 43 78 86 78 94 0 9 -20 40 -43 70 -65 79 -96
148 -67 148 17 0 85 -37 146 -80 32 -22 64 -40 72 -40 18 0 159 136 167 161 8
25 -5 47 -75 126 -66 74 -81 114 -32 89 15 -8 70 -51 122 -95 57 -50 103 -81
117 -81 23 0 138 92 187 150 23 28 26 39 21 72 -4 21 -5 38 -2 38 2 0 18 -5
35 -11 41 -14 49 -9 198 126 69 63 134 115 144 115 11 0 24 -9 30 -19z"/>
</g>
</svg>
