<?xml version="1.0" standalone="no"?>
<!DOCTYPE svg PUBLIC "-//W3C//DTD SVG 20010904//EN"
 "http://www.w3.org/TR/2001/REC-SVG-20010904/DTD/svg10.dtd">
<svg version="1.0" xmlns="http://www.w3.org/2000/svg"
 width="40.000000pt" height="40.000000pt" viewBox="0 0 300.000000 264.000000"
 preserveAspectRatio="xMidYMid meet">
<metadata>
Created by potrace 1.10, written by Peter Selinger 2001-2011
</metadata>
<g transform="translate(0.000000,264.000000) scale(0.100000,-0.100000)"
fill="currentColor" stroke="none">
<path d="M1692 2466 c-89 -91 -162 -168 -162 -173 0 -5 47 -55 105 -113 116
-116 117 -116 95 -231 -10 -53 -14 -58 -213 -256 -111 -112 -206 -203 -212
-203 -5 0 -95 82 -198 183 l-188 183 17 65 c38 149 -3 296 -115 408 -114 114
-270 156 -425 116 -112 -29 -113 -21 28 -163 154 -156 187 -200 193 -255 6
-55 -29 -122 -85 -162 -36 -24 -51 -29 -97 -28 -65 2 -61 -1 -249 175 l-139
131 -13 -26 c-26 -48 -38 -172 -25 -247 15 -80 56 -172 100 -222 41 -47 118
-96 178 -114 53 -16 197 -19 254 -5 l37 8 198 -198 198 -199 -417 -418 c-289
-291 -417 -426 -417 -441 0 -12 9 -41 21 -65 42 -91 138 -176 228 -203 l46
-13 420 420 420 420 211 -212 212 -213 6 -57 c14 -135 96 -254 213 -313 52
-27 68 -30 153 -30 88 0 101 3 162 33 134 66 211 188 211 332 0 194 -141 346
-343 369 l-83 9 -206 206 -206 206 215 215 214 215 74 16 74 16 94 -93 c52
-52 94 -99 94 -106 0 -7 -12 -37 -27 -67 l-27 -55 77 -77 76 -77 262 262 262
262 -74 75 c-40 41 -79 74 -87 74 -7 0 -30 -9 -52 -20 -22 -11 -47 -20 -57
-20 -10 0 -197 179 -438 420 -231 231 -423 420 -426 420 -3 0 -78 -74 -167
-164z m462 -1878 c57 -17 119 -82 135 -141 39 -136 -37 -266 -165 -285 -154
-24 -269 68 -268 213 0 157 143 259 298 213z"/>
</g>
</svg>
