<?xml version="1.0" standalone="no"?>
<!DOCTYPE svg PUBLIC "-//W3C//DTD SVG 20010904//EN"
 "http://www.w3.org/TR/2001/REC-SVG-20010904/DTD/svg10.dtd">
<svg version="1.0" xmlns="http://www.w3.org/2000/svg"
 width="300.000000pt" height="100.000000pt" viewBox="0 0 300.000000 100.000000"
 preserveAspectRatio="xMidYMid meet">
<metadata>
Created by potrace 1.10, written by Peter Selinger 2001-2011
</metadata>
<g transform="translate(0.000000,100.000000) scale(0.100000,-0.100000)"
fill="#000000" stroke="none">
<path d="M1180 831 c0 -10 9 -21 20 -24 16 -4 20 0 20 19 0 17 -6 24 -20 24
-13 0 -20 -7 -20 -19z"/>
<path d="M1222 788 c-5 -7 -8 -35 -6 -61 4 -43 2 -49 -17 -54 -18 -5 -20 -11
-15 -42 5 -31 4 -33 -5 -12 -5 14 -9 36 -8 50 1 14 1 40 0 56 -4 53 -20 -2
-20 -72 -1 -34 -5 -65 -11 -68 -5 -3 -10 0 -10 8 0 8 -11 17 -25 19 -14 3 -25
2 -25 -2 0 -4 -12 -11 -27 -15 -37 -9 -53 -23 -46 -41 3 -8 2 -22 -2 -31 -7
-15 -9 -14 -14 7 -8 31 -35 33 -39 4 -2 -12 -12 -24 -23 -27 -11 -3 -19 -14
-19 -26 0 -25 -18 -27 -35 -4 -10 13 -17 14 -44 5 -18 -6 -45 -9 -61 -5 -19 3
-30 1 -30 -6 0 -6 9 -11 20 -11 24 0 25 -9 3 -55 -16 -34 -18 -35 -79 -35 -43
0 -65 5 -74 15 -11 14 -14 13 -26 -4 -13 -18 -25 -19 -196 -15 -101 2 -195 2
-210 -2 -27 -5 -28 -8 -28 -65 0 -55 1 -59 23 -56 16 1 22 -3 23 -18 2 -42 5
-45 34 -45 17 0 33 7 39 17 7 14 26 18 83 21 73 4 73 3 107 -32 26 -27 43 -36
67 -36 18 0 34 -5 36 -12 5 -15 152 -12 179 3 28 14 186 11 212 -4 17 -11 38
-12 97 -4 41 5 450 11 909 13 590 3 838 8 848 15 17 15 17 34 -2 49 -29 24
-18 63 35 115 35 35 46 51 37 57 -6 4 -104 9 -217 9 -113 1 -257 5 -320 10
-255 21 -260 21 -267 3 -3 -9 0 -20 8 -25 12 -7 11 -9 -2 -9 -9 0 -22 11 -29
25 -7 13 -18 26 -24 28 -6 2 -4 3 4 2 9 -1 47 1 85 5 l70 6 -110 8 c-60 5
-117 12 -125 16 -8 4 -46 5 -83 2 -66 -4 -68 -5 -63 -28 5 -19 3 -22 -11 -17
-10 4 -22 12 -26 20 -4 7 -25 13 -45 14 -78 1 2 18 91 18 48 1 87 5 87 10 0 5
-48 12 -107 15 -60 3 -138 8 -175 11 -50 3 -71 1 -82 -10 -12 -13 -15 -11 -20
10 -4 15 -16 27 -31 31 -16 4 -28 18 -37 42 -6 21 -11 40 -10 44 1 3 -6 12
-14 19 -13 10 -17 10 -24 -1 -5 -8 -6 -18 -4 -22 3 -4 -7 -13 -21 -20 -21 -10
-28 -9 -35 2 -5 9 -5 19 2 27 14 17 3 43 -18 43 -13 0 -16 7 -11 35 3 19 3 35
-1 35 -4 0 -16 14 -27 30 -21 32 -46 38 -63 18z m195 -235 c-4 -3 -10 -3 -14
0 -3 4 0 7 7 7 7 0 10 -3 7 -7z m30 -40 c-4 -3 -10 -3 -14 0 -3 4 0 7 7 7 7 0
10 -3 7 -7z m116 -60 c-7 -2 -19 -2 -25 0 -7 3 -2 5 12 5 14 0 19 -2 13 -5z
m795 -80 c-15 -2 -42 -2 -60 0 -18 2 -6 4 27 4 33 0 48 -2 33 -4z m-2143 -103
c17 -7 15 -9 -12 -9 -17 -1 -35 4 -38 9 -7 12 22 12 50 0z m125 -30 c23 -7 22
-8 -10 -8 -19 0 -46 4 -60 8 -23 7 -22 8 10 8 19 0 46 -4 60 -8z"/>
</g>
</svg>
