<?xml version="1.0" standalone="no"?>
<!DOCTYPE svg PUBLIC "-//W3C//DTD SVG 20010904//EN"
 "http://www.w3.org/TR/2001/REC-SVG-20010904/DTD/svg10.dtd">
<svg version="1.0" xmlns="http://www.w3.org/2000/svg"
 width="100.000000pt" height="31.000000pt" viewBox="0 0 300.000000 93.000000"
 preserveAspectRatio="xMidYMid meet">
<metadata>
Created by potrace 1.10, written by Peter Selinger 2001-2011
</metadata>
<g transform="translate(0.000000,93.000000) scale(0.100000,-0.100000)"
fill="#000000" stroke="none">
<path d="M1516 853 c13 -29 17 -143 5 -143 -6 0 -8 7 -5 15 3 8 -7 37 -22 66
l-29 52 -10 -44 c-7 -28 -17 -45 -28 -47 -21 -4 -22 -18 -2 -26 22 -8 22 -161
-1 -170 -32 -12 -43 -6 -46 26 -3 30 -27 54 -25 26 2 -56 1 -57 -64 -51 l-61
4 7 -65 c7 -62 6 -66 -13 -66 -12 0 -23 9 -27 19 -7 24 -44 38 -55 21 -5 -8
-48 -13 -140 -14 l-133 -1 68 -15 c74 -16 86 -29 42 -44 -24 -9 -30 -7 -38 7
-9 15 -25 17 -142 15 -73 -2 -148 0 -167 4 l-35 7 35 -10 c19 -6 42 -14 50
-17 25 -11 -127 -14 -183 -4 -29 5 -78 6 -109 3 -32 -4 -58 -3 -58 1 0 12
-138 10 -182 -2 l-37 -11 13 -37 c7 -20 17 -64 21 -96 4 -33 11 -70 16 -83 l9
-23 482 0 c406 0 1619 14 1921 22 l87 2 0 33 c0 28 3 33 24 33 19 0 26 -7 31
-30 4 -16 11 -32 16 -36 16 -10 39 17 39 46 0 26 3 28 53 34 l53 7 22 68 c27
82 27 81 3 81 -14 0 -23 14 -37 56 l-19 56 -72 23 -73 23 0 -29 c0 -16 5 -29
10 -29 6 0 10 5 10 11 0 7 10 9 28 4 15 -4 34 -8 42 -9 8 0 18 -5 23 -11 4 -6
11 -4 17 5 10 13 11 13 9 0 -2 -8 3 -33 9 -54 6 -22 9 -42 7 -46 -3 -4 -134
-8 -292 -8 -166 0 -274 3 -255 8 53 12 50 21 -4 13 -27 -5 -67 -7 -89 -6 -22
1 -61 2 -87 2 -36 1 -48 5 -48 16 0 18 -1 18 -33 6 -14 -6 -28 -19 -32 -30 -9
-28 -25 -27 -26 2 0 12 -6 40 -13 62 l-13 40 -13 -27 c-16 -33 -50 -38 -50 -8
0 14 -7 20 -23 20 -13 0 -28 5 -35 12 -9 9 -12 8 -12 -5 0 -9 -3 -17 -8 -17
-4 0 -7 15 -6 33 2 38 -11 77 -25 77 -6 0 -13 -17 -17 -37 -9 -51 -13 -56 -32
-41 -12 9 -11 6 2 -10 l19 -22 -31 0 -32 0 0 178 c0 118 -4 172 -10 162 -5 -8
-10 -61 -10 -117 0 -57 -2 -103 -5 -103 -21 0 -55 27 -55 44 0 19 -1 19 -13
-4 -16 -32 -43 -33 -40 -2 2 12 -2 22 -7 22 -5 0 -8 38 -7 90 1 66 -1 90 -10
90 -7 0 -13 5 -13 10 0 6 -5 10 -11 10 -7 0 -8 -7 -3 -17z m-1229 -460 c-4 -3
-10 -3 -14 0 -3 4 0 7 7 7 7 0 10 -3 7 -7z"/>
</g>
</svg>
