<?xml version="1.0" standalone="no"?>
<!DOCTYPE svg PUBLIC "-//W3C//DTD SVG 20010904//EN"
 "http://www.w3.org/TR/2001/REC-SVG-20010904/DTD/svg10.dtd">
<svg version="1.0" xmlns="http://www.w3.org/2000/svg"
 width="225.000000pt" height="225.000000pt" viewBox="0 0 225.000000 225.000000"
 preserveAspectRatio="xMidYMid meet">
<metadata>
Created by potrace 1.10, written by Peter Selinger 2001-2011
</metadata>
<g transform="translate(0.000000,225.000000) scale(0.100000,-0.100000)"
fill="#000000" stroke="none">
<path d="M1096 2234 c-10 -9 -16 -33 -16 -59 0 -53 26 -75 66 -56 45 20 27
131 -21 131 -7 0 -21 -7 -29 -16z"/>
<path d="M1100 2030 c-13 -8 -16 -60 -20 -337 l-5 -328 -64 155 c-89 216 -86
212 -124 208 -50 -5 -47 -37 24 -205 33 -81 65 -159 71 -173 5 -14 -76 60
-184 168 -191 190 -217 209 -246 180 -29 -29 -10 -55 181 -246 164 -165 186
-191 152 -177 -337 138 -330 136 -353 113 -7 -7 -12 -22 -12 -35 0 -27 7 -31
210 -114 l155 -64 -209 -3 c-134 -1 -214 -6 -223 -13 -7 -6 -13 -22 -13 -34 0
-12 6 -28 13 -34 9 -7 89 -12 223 -13 l209 -3 -145 -59 c-219 -89 -222 -91
-218 -129 5 -50 36 -46 204 24 82 33 160 65 174 71 14 5 -73 -89 -192 -209
-215 -216 -235 -242 -206 -271 29 -29 55 -9 271 206 184 183 216 211 202 177
-9 -22 -41 -100 -71 -174 -63 -153 -66 -184 -17 -189 38 -4 35 -8 124 208 l64
155 3 -264 c1 -175 6 -269 13 -278 15 -17 53 -17 68 0 7 9 12 103 13 278 l3
264 64 -155 c35 -85 70 -167 77 -182 23 -44 84 -33 84 15 0 10 -27 85 -61 165
-34 81 -65 158 -71 172 -5 15 48 -32 130 -113 123 -122 142 -138 168 -135 24
2 30 8 32 32 3 26 -13 46 -135 169 -76 77 -131 137 -123 134 8 -3 86 -35 172
-71 164 -68 186 -74 206 -54 16 16 15 53 0 65 -7 5 -89 41 -182 79 l-169 69
319 3 c286 2 320 4 332 19 14 20 15 33 2 53 -8 13 -60 16 -332 20 l-323 5 180
75 180 76 0 34 c0 31 -3 35 -28 38 -17 2 -79 -18 -160 -52 -73 -30 -150 -62
-172 -71 -38 -16 -36 -12 49 73 77 79 88 93 82 116 -4 16 -16 28 -32 32 -23 6
-37 -4 -115 -82 -59 -58 -87 -80 -81 -64 6 14 37 91 71 172 34 80 61 155 61
165 0 48 -61 59 -84 16 -7 -16 -42 -98 -77 -183 l-64 -155 -5 328 c-5 338 -6
347 -45 347 -5 0 -17 -5 -25 -10z"/>
<path d="M1698 1762 c-98 -98 -178 -185 -178 -195 0 -25 44 -51 67 -38 28 15
353 346 353 359 0 16 -37 52 -52 52 -7 0 -92 -80 -190 -178z"/>
<path d="M332 1918 c-25 -25 -11 -54 52 -117 53 -52 68 -62 92 -59 24 2 30 8
32 32 3 24 -7 39 -59 92 -63 63 -92 77 -117 52z"/>
<path d="M16 1154 c-9 -8 -16 -22 -16 -29 0 -7 7 -21 16 -29 13 -13 44 -16
178 -16 170 0 186 4 186 45 0 41 -16 45 -186 45 -134 0 -165 -3 -178 -16z"/>
<path d="M2112 1158 c-7 -7 -12 -21 -12 -33 0 -33 20 -45 75 -45 55 0 75 12
75 45 0 12 -5 26 -12 33 -16 16 -110 16 -126 0z"/>
<path d="M1642 608 c-28 -28 -11 -55 111 -176 68 -67 129 -122 135 -122 15 0
52 37 52 52 0 6 -55 67 -122 135 -121 122 -148 139 -176 111z"/>
<path d="M365 429 c-45 -42 -56 -74 -33 -97 23 -23 55 -12 97 33 47 51 49 57
21 85 -28 28 -34 26 -85 -21z"/>
<path d="M1096 244 c-13 -12 -16 -38 -16 -118 0 -107 7 -126 45 -126 38 0 45
19 45 126 0 105 -10 134 -45 134 -7 0 -21 -7 -29 -16z"/>
</g>
</svg>
