<?xml version="1.0" standalone="no"?>
<!DOCTYPE svg PUBLIC "-//W3C//DTD SVG 20010904//EN"
 "http://www.w3.org/TR/2001/REC-SVG-20010904/DTD/svg10.dtd">
<svg version="1.0" xmlns="http://www.w3.org/2000/svg"
 width="100.000000pt" height="51.000000pt" viewBox="0 0 170.000000 51.000000"
 preserveAspectRatio="xMidYMid meet">
<metadata>
Created by potrace 1.10, written by Peter Selinger 2001-2011
</metadata>
<g transform="translate(0.000000,51.000000) scale(0.100000,-0.100000)"
fill="#000000" stroke="none">
<path d="M1120 371 c-5 -11 -12 -35 -14 -53 l-3 -33 -279 -6 c-190 -4 -335
-13 -454 -28 -96 -11 -178 -21 -182 -21 -4 0 -12 18 -18 40 -9 35 -14 40 -40
40 -28 0 -30 -3 -30 -38 0 -25 -7 -43 -20 -55 -26 -22 -25 -29 5 -55 14 -12
25 -26 25 -32 0 -18 37 -11 51 10 l14 21 100 -21 c69 -15 163 -24 305 -30 263
-11 942 -12 999 -1 54 11 86 40 76 71 -13 40 -102 65 -337 95 l-48 6 0 39 c0
34 -4 41 -25 46 -14 3 -25 11 -25 17 0 7 -4 7 -12 -1 -15 -15 -58 -16 -58 -2
0 17 -19 11 -30 -9z"/>
</g>
</svg>
