<?xml version="1.0" standalone="no"?>
<!DOCTYPE svg PUBLIC "-//W3C//DTD SVG 20010904//EN"
 "http://www.w3.org/TR/2001/REC-SVG-20010904/DTD/svg10.dtd">
<svg version="1.0" xmlns="http://www.w3.org/2000/svg"
 width="92.000000pt" height="50.000000pt" viewBox="0 0 184.000000 101.000000"
 preserveAspectRatio="xMidYMid meet">
<metadata>
Created by potrace 1.10, written by Peter Selinger 2001-2011
</metadata>
<g transform="translate(0.000000,101.000000) scale(0.100000,-0.100000)"
fill="#000000" stroke="none">
<path d="M668 730 c-1 -5 -31 -13 -65 -16 -57 -6 -63 -9 -63 -29 0 -29 -17
-35 -91 -35 l-59 0 0 -65 0 -65 -158 5 -159 5 14 -102 c18 -141 22 -153 36
-139 21 21 32 11 33 -31 1 -35 7 -47 33 -69 57 -47 80 -49 532 -49 l424 0 60
28 c109 52 155 106 155 181 0 38 -2 41 -37 50 -21 5 -58 15 -83 23 l-45 13 38
3 c47 4 49 22 2 22 -19 0 -35 3 -35 8 0 4 -14 15 -30 24 -41 23 -40 54 1 62
46 9 512 7 527 -2 7 -5 26 -7 42 -4 23 3 30 9 30 27 0 17 -7 24 -32 29 -17 3
-36 2 -42 -4 -14 -14 -493 -14 -501 0 -3 6 -42 10 -86 10 -44 0 -89 5 -100 11
-15 7 -24 7 -35 -2 -11 -9 -14 -8 -14 3 0 12 -25 18 -111 29 -102 12 -112 15
-135 42 -13 16 -24 33 -24 38 0 12 -17 12 -22 -1z m440 -202 c3 -15 -4 -18
-36 -18 -22 0 -42 -5 -44 -11 -2 -6 -21 -9 -43 -7 l-40 3 55 27 c62 30 103 32
108 6z m-638 -18 c0 -5 -14 -7 -32 -3 -46 8 -48 13 -5 13 21 0 37 -4 37 -10z"/>
</g>
</svg>
