<?xml version="1.0" standalone="no"?>
<!DOCTYPE svg PUBLIC "-//W3C//DTD SVG 20010904//EN"
 "http://www.w3.org/TR/2001/REC-SVG-20010904/DTD/svg10.dtd">
<svg version="1.0" xmlns="http://www.w3.org/2000/svg"
 width="300.000000pt" height="300.000000pt" viewBox="0 0 300.000000 300.000000"
 preserveAspectRatio="xMidYMid meet">
<metadata>
Created by potrace 1.10, written by Peter Selinger 2001-2011
</metadata>
<g transform="translate(0.000000,300.000000) scale(0.100000,-0.100000)"
fill="#000000" stroke="none">
<path d="M990 2993 c-83 -12 -140 -42 -140 -73 0 -17 18 -28 80 -51 69 -25 51
-29 -107 -23 l-161 6 -47 -43 c-78 -72 -82 -99 -18 -135 21 -12 55 -36 76 -52
47 -38 45 -39 -128 -48 -94 -5 -135 -11 -147 -22 -24 -20 -85 -141 -88 -172
-5 -59 -1 -67 48 -88 26 -12 66 -34 90 -50 l43 -29 -68 -7 c-37 -4 -90 -10
-116 -12 -85 -9 -89 -13 -116 -107 -13 -48 -25 -107 -25 -133 -1 -52 -7 -45
128 -138 47 -32 86 -62 86 -66 0 -6 -38 -14 -175 -37 -16 -2 -41 -10 -55 -16
-25 -12 -25 -13 -25 -144 0 -114 2 -134 19 -152 10 -11 68 -46 127 -76 59 -30
110 -59 113 -64 5 -7 -59 -20 -179 -35 -54 -7 -68 -29 -60 -91 8 -72 35 -177
48 -195 7 -9 44 -28 82 -44 118 -48 225 -99 225 -107 0 -4 -24 -11 -52 -14
-29 -4 -78 -12 -108 -19 -53 -12 -55 -13 -58 -49 -4 -46 47 -158 82 -181 20
-12 114 -44 181 -60 6 -1 46 -13 89 -26 92 -28 83 -38 -34 -39 -105 -2 -120
-7 -120 -42 0 -29 62 -109 101 -130 15 -7 86 -20 189 -34 118 -15 200 -30 200
-36 0 -8 -39 -15 -133 -25 -37 -3 -69 -10 -72 -14 -6 -9 24 -50 37 -50 5 0 24
-6 41 -14 63 -28 133 -45 210 -49 73 -4 76 -3 62 13 -11 13 -37 19 -93 22 -86
6 -204 44 -181 59 8 5 32 9 54 9 51 0 89 20 93 47 4 27 -15 37 -98 52 -56 9
-277 41 -287 41 -2 0 -24 19 -48 41 -53 49 -60 78 -16 71 49 -7 164 16 179 35
11 16 10 21 -12 39 -13 12 -57 31 -98 43 -40 12 -111 34 -158 49 l-85 27 -27
55 c-15 30 -28 67 -28 82 0 23 5 27 43 33 74 11 142 27 155 38 17 14 15 41 -5
59 -10 9 -74 40 -143 69 -69 29 -131 58 -138 64 -16 14 -38 95 -47 173 -8 69
-14 65 123 78 46 4 80 12 94 24 39 31 14 59 -111 123 -61 32 -115 67 -121 77
-10 18 -15 240 -6 240 26 0 224 44 233 52 34 27 8 60 -112 143 -38 27 -73 54
-78 59 -16 23 28 212 52 225 9 5 62 12 119 16 117 9 153 25 134 62 -11 21 -83
71 -134 94 -23 10 -28 19 -28 46 0 34 48 140 72 160 7 6 72 13 146 15 120 3
134 6 154 26 33 32 28 37 -108 139 l-29 21 43 44 42 43 159 -3 c149 -4 160 -3
170 16 15 28 -8 55 -66 77 l-47 18 29 13 c17 8 49 18 71 24 23 6 45 17 48 25
3 8 2 14 -2 14 -4 -1 -18 -3 -32 -6z"/>
<path d="M1580 2976 c-36 -13 -80 -31 -97 -40 -18 -9 -45 -16 -60 -16 -53 0
-248 -41 -263 -56 -27 -26 0 -48 66 -54 l59 -5 -48 -36 c-33 -26 -89 -51 -186
-84 -148 -50 -196 -80 -172 -109 9 -10 36 -16 87 -18 l74 -3 -51 -75 c-71
-106 -79 -113 -193 -169 -56 -28 -112 -61 -125 -75 l-22 -24 27 -21 c20 -16
41 -21 86 -21 57 0 59 -1 52 -22 -47 -156 -67 -216 -76 -234 -6 -12 -48 -47
-94 -79 -46 -31 -86 -65 -89 -76 -12 -35 12 -49 83 -49 l65 0 -6 -107 c-4 -58
-7 -129 -7 -157 0 -50 -1 -52 -61 -100 -34 -27 -66 -61 -72 -74 -10 -21 -8
-27 13 -44 19 -16 35 -19 72 -16 52 5 76 -5 82 -37 3 -11 15 -70 27 -132 l23
-111 -63 -67 c-58 -63 -61 -68 -48 -88 12 -19 27 -23 100 -27 47 -3 88 -7 90
-10 6 -6 107 -208 107 -214 0 -2 -23 -27 -51 -56 -49 -50 -50 -52 -33 -71 14
-16 31 -19 102 -19 l85 0 81 -79 c77 -76 80 -80 63 -99 -42 -47 -3 -82 92 -82
45 0 73 -6 95 -19 56 -35 236 -102 264 -99 37 4 36 37 -3 61 -16 10 -68 42
-115 70 -46 29 -89 61 -95 72 -27 54 -58 84 -98 97 -58 20 -156 134 -150 175
6 35 -30 90 -79 122 -59 38 -132 215 -97 236 26 17 -12 119 -56 152 -22 16
-29 35 -46 118 -24 126 -24 151 1 182 29 37 26 99 -5 145 -23 34 -25 46 -25
151 0 93 3 119 18 138 44 61 57 136 30 179 -10 15 -10 29 0 67 33 126 56 193
67 193 16 0 49 37 70 79 11 22 15 48 13 75 -5 45 10 84 70 173 27 42 40 53 61
53 44 0 111 81 111 134 0 35 73 96 116 96 36 0 104 55 104 83 0 9 28 31 65 52
75 42 80 48 65 75 -13 25 -18 24 -100 -4z m55 -27 c-104 -55 -128 -71 -114
-80 11 -7 7 -16 -19 -39 -33 -31 -67 -39 -74 -18 -2 6 -34 -17 -71 -52 -55
-51 -66 -66 -61 -85 7 -27 -9 -61 -40 -87 -23 -19 -53 -23 -58 -8 -3 10 -82
-105 -131 -191 -22 -39 -24 -46 -10 -55 31 -20 -27 -148 -65 -142 -16 3 -31
-34 -72 -182 -31 -113 -32 -120 -16 -120 8 0 18 -9 21 -20 12 -38 -16 -120
-41 -120 -16 0 -24 -59 -24 -191 0 -96 3 -118 15 -123 9 -3 23 -22 31 -42 18
-42 5 -99 -25 -109 -16 -5 -18 -11 -10 -45 5 -22 8 -43 7 -47 -3 -12 22 -153
33 -189 5 -18 18 -34 29 -37 24 -6 60 -64 60 -98 0 -15 -7 -32 -15 -39 -8 -7
-15 -17 -15 -22 0 -26 111 -239 121 -233 12 8 67 -41 79 -70 4 -11 3 -26 -2
-33 -13 -15 18 -64 90 -143 39 -42 59 -56 79 -56 33 -1 93 -61 72 -73 -13 -9
113 -96 209 -144 28 -14 52 -28 52 -31 0 -9 -166 56 -243 95 -69 36 -86 40
-149 40 l-72 0 28 29 29 30 -74 79 c-101 108 -109 112 -216 112 l-88 1 46 42
c26 23 49 50 53 61 7 20 -95 232 -122 253 -10 8 -48 13 -99 13 -46 0 -83 4
-83 8 0 4 27 34 61 67 l60 60 -5 50 c-3 28 -9 66 -14 85 -5 19 -15 62 -22 95
-21 98 -27 104 -117 107 l-78 3 73 59 c39 33 74 67 77 76 3 9 7 63 9 121 2 57
7 125 11 150 10 65 -6 79 -96 79 -45 0 -68 4 -64 10 3 6 44 35 89 65 54 36 89
67 99 88 17 35 87 255 87 274 0 20 -23 28 -100 33 l-75 5 115 58 c63 32 127
70 142 85 56 57 153 206 143 222 -3 5 -47 10 -98 11 -107 0 -110 -2 95 69 120
42 147 55 210 106 40 32 75 60 77 61 16 11 -24 17 -102 15 -50 -2 -89 0 -85 3
7 7 156 33 232 41 26 2 65 12 85 21 54 25 154 61 171 62 8 1 -3 -8 -25 -20z"/>
<path d="M1860 2994 c0 -15 33 -35 75 -44 82 -18 115 -36 115 -63 0 -39 30
-57 91 -57 53 0 58 -2 126 -62 66 -58 72 -66 72 -103 1 -51 41 -113 79 -120
46 -10 54 -19 104 -111 45 -83 48 -93 42 -140 -7 -59 17 -119 61 -151 46 -33
98 -287 64 -309 -19 -12 -3 -133 21 -159 27 -29 34 -109 25 -290 -7 -137 -9
-148 -31 -167 -31 -28 -52 -117 -36 -153 14 -31 15 -85 3 -117 -5 -13 -20 -58
-32 -102 -17 -56 -30 -81 -44 -86 -47 -18 -84 -92 -77 -156 3 -36 -3 -52 -53
-133 -52 -85 -58 -91 -89 -91 -39 0 -83 -39 -92 -79 -3 -14 -7 -36 -10 -48 -2
-12 -33 -43 -71 -71 -57 -43 -75 -51 -127 -57 -53 -7 -65 -12 -96 -46 -19 -22
-42 -39 -51 -39 -16 0 -39 -19 -39 -32 0 -21 68 7 100 42 30 32 43 39 90 45
64 8 116 36 184 99 42 39 48 49 43 74 -9 44 29 85 79 86 37 1 40 3 102 101 59
92 63 103 59 144 -6 53 26 131 54 131 9 0 22 6 28 13 10 13 51 129 67 192 4
17 9 37 11 45 8 30 4 72 -7 86 -8 9 -10 30 -6 59 4 25 6 48 4 51 -2 3 9 12 24
20 37 19 42 51 42 282 1 187 0 194 -21 210 -28 22 -49 123 -27 135 17 10 19
92 3 152 -5 22 -12 48 -14 59 -20 87 -36 123 -59 134 -14 6 -34 30 -44 53 -16
34 -17 48 -9 76 10 31 6 43 -46 147 -56 111 -79 136 -123 136 -8 0 -25 12 -38
27 -18 21 -22 35 -19 63 6 43 -19 77 -107 145 -55 42 -63 45 -119 45 -57 0
-61 2 -61 23 0 39 -27 64 -92 85 -73 23 -128 34 -128 26z"/>
<path d="M1740 2467 c-19 -8 -46 -19 -60 -24 -52 -22 -151 -106 -200 -171
-139 -185 -215 -420 -227 -702 -8 -201 9 -338 67 -535 26 -87 99 -227 165
-314 56 -75 145 -145 226 -177 57 -23 78 -26 150 -23 70 3 95 9 149 36 213
105 380 405 420 752 42 365 -39 722 -216 956 -63 84 -125 137 -207 178 -52 26
-76 32 -147 34 -55 2 -97 -2 -120 -10z m262 -55 c171 -81 317 -306 374 -577
36 -166 44 -291 32 -460 -10 -130 -37 -260 -79 -373 -47 -129 -135 -269 -213
-339 -28 -25 -80 -59 -116 -77 -58 -28 -75 -31 -155 -31 -83 0 -96 3 -159 34
-61 31 -144 100 -186 156 -53 69 -119 199 -149 290 -77 237 -91 474 -47 750
26 154 110 359 193 465 48 62 73 86 124 120 91 63 141 79 234 76 66 -2 91 -8
147 -34z"/>
</g>
</svg>
