<?xml version="1.0" standalone="no"?>
<!DOCTYPE svg PUBLIC "-//W3C//DTD SVG 20010904//EN"
 "http://www.w3.org/TR/2001/REC-SVG-20010904/DTD/svg10.dtd">
<svg version="1.0" xmlns="http://www.w3.org/2000/svg"
 width="300.000000pt" height="300.000000pt" viewBox="0 0 300.000000 300.000000"
 preserveAspectRatio="xMidYMid meet">
<metadata>
Created by potrace 1.10, written by Peter Selinger 2001-2011
</metadata>
<g transform="translate(0.000000,300.000000) scale(0.100000,-0.100000)"
fill="#000000" stroke="none">
<path d="M985 2994 c-91 -20 -135 -44 -135 -74 0 -17 16 -27 78 -50 18 -7 35
-16 38 -21 2 -4 -65 -5 -149 -2 l-154 6 -47 -43 c-80 -74 -83 -101 -16 -139
53 -29 101 -71 95 -81 -3 -4 -67 -11 -142 -15 -106 -6 -142 -11 -157 -24 -28
-25 -86 -147 -88 -185 -2 -44 4 -52 70 -86 31 -16 70 -37 85 -48 l28 -19 -117
-12 c-64 -7 -126 -16 -137 -20 -31 -12 -84 -204 -71 -257 4 -17 40 -48 110
-95 57 -39 104 -74 104 -78 0 -4 -53 -17 -117 -29 -64 -12 -122 -27 -127 -32
-7 -7 -11 -62 -11 -139 0 -112 2 -132 19 -150 10 -11 68 -46 127 -76 59 -30
110 -59 113 -64 5 -7 -59 -20 -179 -35 -54 -7 -68 -29 -60 -91 8 -72 35 -177
48 -195 7 -9 48 -31 92 -49 135 -56 215 -94 215 -102 0 -4 -24 -11 -52 -14
-29 -4 -78 -12 -108 -19 -53 -12 -55 -13 -58 -49 -4 -45 47 -157 82 -180 13
-9 50 -23 82 -32 32 -9 70 -20 84 -25 14 -5 58 -19 99 -30 90 -26 80 -40 -29
-40 -104 0 -120 -6 -120 -41 0 -30 62 -109 102 -130 10 -5 64 -16 120 -24 220
-30 276 -41 266 -50 -3 -3 -45 -10 -94 -16 -116 -13 -117 -14 -104 -39 12 -22
48 -40 150 -73 63 -21 82 -21 549 -22 l483 0 37 41 c32 36 44 42 91 49 64 8
116 36 184 99 41 38 48 49 43 73 -8 44 24 81 76 85 41 3 42 4 105 103 57 90
63 104 60 145 -4 56 26 130 53 130 25 0 42 30 69 120 12 41 26 85 31 98 13 32
11 106 -2 119 -19 19 -1 100 28 127 24 22 27 35 35 138 6 62 7 164 5 227 -5
102 -8 117 -27 131 -24 18 -41 122 -21 134 14 9 14 96 0 156 -27 122 -49 177
-73 188 -38 17 -65 85 -53 131 9 34 6 45 -42 139 -53 103 -87 142 -123 142
-31 0 -57 40 -58 87 0 49 -25 82 -110 148 -55 42 -63 45 -119 45 -57 0 -61 2
-61 23 0 38 -27 64 -92 88 -62 23 -69 23 -523 25 -253 1 -469 0 -480 -2z m618
-60 c-87 -46 -98 -55 -82 -65 9 -5 3 -16 -20 -38 -34 -32 -66 -40 -73 -19 -2
6 -34 -17 -71 -51 -58 -55 -65 -66 -61 -90 10 -48 -83 -134 -98 -91 -3 11 -85
-108 -131 -191 -22 -39 -24 -46 -10 -55 31 -19 -17 -130 -59 -136 -24 -3 -42
-47 -82 -203 -24 -90 -24 -90 -4 -109 16 -15 19 -27 14 -58 -7 -44 -25 -78
-42 -78 -16 0 -24 -59 -24 -191 0 -96 3 -118 15 -123 9 -3 23 -22 31 -42 18
-42 5 -99 -25 -109 -17 -5 -17 -12 5 -143 25 -158 29 -169 56 -178 45 -14 75
-108 43 -134 -19 -16 -16 -28 43 -152 30 -65 51 -98 62 -98 9 0 31 -15 49 -34
28 -29 33 -40 28 -65 -5 -25 0 -39 30 -78 61 -83 113 -130 139 -130 32 0 77
-42 70 -66 -5 -20 93 -91 202 -146 34 -17 62 -33 62 -36 0 -9 -166 57 -242 96
-69 35 -86 39 -150 39 l-72 0 28 29 28 30 -78 83 c-43 46 -88 88 -99 95 -11 7
-59 13 -110 13 l-90 1 46 42 c26 23 49 50 53 61 7 20 -95 232 -122 253 -10 8
-46 13 -93 13 -43 0 -80 4 -83 8 -3 5 22 35 54 67 36 36 60 68 60 81 0 19 -26
148 -49 247 -15 61 -24 67 -110 67 l-76 1 35 31 c19 17 54 47 78 68 l42 37 0
74 c0 41 5 112 10 157 15 114 9 122 -80 122 -39 0 -70 4 -70 9 0 5 39 35 86
67 57 38 91 68 100 88 29 67 84 264 78 279 -7 20 -29 26 -109 29 l-60 3 115
58 c132 67 145 78 208 170 72 103 84 126 77 137 -3 5 -45 10 -93 10 -82 1 -85
2 -60 15 14 8 83 33 153 56 113 37 136 49 201 101 101 81 101 82 -31 79 -108
-1 -73 12 85 33 74 11 147 27 180 41 151 64 196 73 93 19z m399 -522 c145 -69
273 -241 342 -461 38 -119 45 -158 61 -313 26 -257 -20 -539 -121 -741 -75
-151 -171 -256 -284 -311 -58 -28 -75 -31 -155 -31 -79 0 -97 4 -148 28 -85
42 -149 97 -206 179 -153 216 -221 482 -208 808 18 421 189 754 443 859 76 32
188 25 276 -17z"/>
</g>
</svg>
