<?xml version="1.0" standalone="no"?>
<!DOCTYPE svg PUBLIC "-//W3C//DTD SVG 20010904//EN"
 "http://www.w3.org/TR/2001/REC-SVG-20010904/DTD/svg10.dtd">
<svg version="1.0" xmlns="http://www.w3.org/2000/svg"
 width="300.000000pt" height="300.000000pt" viewBox="0 0 300.000000 300.000000"
 preserveAspectRatio="xMidYMid meet">
<metadata>
Created by potrace 1.10, written by Peter Selinger 2001-2011
</metadata>
<g transform="translate(0.000000,300.000000) scale(0.100000,-0.100000)"
fill="#000000" stroke="none">
<path d="M2095 1657 c-27 -13 -58 -33 -68 -45 -18 -20 -17 -20 28 -37 25 -10
44 -20 42 -22 -3 -2 -28 5 -56 17 -28 11 -53 20 -54 20 -1 0 -2 -40 -2 -90 0
-49 2 -90 5 -89 19 2 175 86 178 96 2 7 -12 19 -30 27 -26 12 -28 14 -7 10 25
-5 26 -3 35 48 8 48 12 53 39 58 45 8 36 25 -15 28 -31 1 -61 -5 -95 -21z"/>
<path d="M690 1612 c-57 -57 -59 -178 -5 -236 l24 -26 575 0 c410 0 582 3 600
11 20 9 28 24 37 67 10 51 7 139 -7 175 -13 35 -46 37 -625 37 l-571 0 -28
-28z"/>
<path d="M2180 1495 l0 -135 30 0 30 0 0 135 0 135 -30 0 -30 0 0 -135z"/>
<path d="M2259 1613 c-7 -44 -4 -205 3 -209 16 -10 29 18 22 49 -4 19 -2 27 8
27 10 0 12 -11 10 -41 -3 -32 -1 -40 9 -37 8 3 14 19 14 40 0 19 6 43 14 52
13 15 13 19 0 26 -8 6 -14 26 -14 51 0 27 -5 44 -14 47 -11 4 -13 -5 -9 -42 4
-37 2 -46 -9 -46 -12 0 -14 7 -10 30 4 16 4 37 1 45 -6 16 -23 21 -25 8z"/>
<path d="M1954 1506 c1 -54 4 -88 7 -75 9 31 9 105 0 144 -4 17 -7 -12 -7 -69z"/>
<path d="M2073 1439 c-35 -16 -63 -32 -63 -37 0 -10 58 -48 103 -67 41 -17
122 -17 122 0 0 6 -14 11 -31 13 -28 3 -31 7 -42 62 -7 33 -16 60 -20 59 -4 0
-35 -14 -69 -30z"/>
</g>
</svg>
